<?xml version="1.0" encoding="UTF-8"?><svg id="Layer_1" xmlns="http://www.w3.org/2000/svg" viewBox="0 0 512 512"><defs><style>.cls-1{fill:gray;}.cls-2{fill:#ff931e;}</style></defs><path class="cls-2" d="m352,192c-88.37,0-160,71.63-160,160,0,13.83,2.3,27.03,5.6,39.83l-112.89,41.59c-3.1-3.71-6.62-7.03-10.69-9.66l40.27-169.14c-10.85-1.17-21.32-3.44-31.19-7.15l-40.25,169.04c-24.06,2.6-42.86,22.73-42.86,47.48,0,26.51,21.49,48,48,48s48-21.49,48-48c0-.21-.06-.4-.06-.61l112.75-41.54c26,53.19,80.12,90.15,143.31,90.15,88.37,0,160-71.63,160-160s-71.63-160-160-160Z"/><path class="cls-1" d="m83.12,247.48c9.86,3.71,20.33,5.97,31.18,7.14,4.56.49,9.01,1.38,13.7,1.38,29.56,0,56.45-10.43,78.11-27.26l22.52,22.52c6.79-8.31,14.32-15.83,22.62-22.62l-22.52-22.52c16.83-21.67,27.26-48.55,27.26-78.11,0-1.36-.36-2.61-.4-3.96l101.71-16.06c6.87,18.32,20.24,33.25,37.33,42.35l-13.13,44.64c10.65,1.99,20.92,4.97,30.71,8.96l13.12-44.61c2.23.19,4.38.67,6.66.67,44.18,0,80-35.82,80-80S476.18,0,432,0s-77.7,33.91-79.63,76.38l-101.98,16.1C234.91,39.19,186.28,0,128,0,57.31,0,0,57.31,0,128c0,54.84,34.65,101.25,83.12,119.48Z"/></svg>