<?xml version="1.0" encoding="utf-8"?>
<!-- Generator: Adobe Illustrator 27.5.0, SVG Export Plug-In . SVG Version: 6.00 Build 0)  -->
<svg version="1.1" id="Layer_1" xmlns="http://www.w3.org/2000/svg" xmlns:xlink="http://www.w3.org/1999/xlink" x="0px" y="0px"
	 viewBox="0 0 50 50" style="enable-background:new 0 0 50 50;" xml:space="preserve">
<style type="text/css">
	.st0{fill:#818181;}
</style>
<path class="st0" d="M44,23.4c-2.6,0-4.8,1.6-5.6,4L26,25.1c0-0.7-0.3-1.3-0.6-1.9l4.7-5c0.8,0.5,1.7,0.8,2.6,0.8c2.8,0,5-2.2,5-5
	s-2.2-5-5-5s-5,2.2-5,5c0,1.1,0.3,2.1,0.9,2.9l-4.7,5c-0.6-0.3-1.2-0.5-1.9-0.5c-0.9,0-1.8,0.3-2.4,0.8l-8.3-6.5
	c0.5-0.9,0.7-1.8,0.7-2.9c0-3.3-2.7-6-6-6s-6,2.7-6,6s2.7,6,6,6c1.6,0,3-0.6,4-1.6l8.3,6.5c-0.2,0.5-0.3,1-0.3,1.6c0,0,0,0.1,0,0.1
	l0,0l-6.1,1.8c-0.7-1.2-2-2-3.4-2c-2.2,0-4,1.8-4,4s1.8,4,4,4s4-1.8,4-4c0,0,0-0.1,0-0.1l6.1-1.8c0.4,0.7,1.1,1.3,1.8,1.6l-1.9,9
	c-3.3,0-5.9,2.7-5.9,6s2.7,6,6,6s6-2.7,6-6c0-2.6-1.7-4.9-4.1-5.7l1.9-8.9c1.4-0.1,2.7-1,3.2-2.3L38,29.3v0.1c0,3.3,2.7,6,6,6
	s6-2.7,6-6S47.3,23.4,44,23.4z M32.7,11c1.7,0,3,1.3,3,3s-1.3,3-3,3c-0.4,0-0.8-0.1-1.2-0.2c-0.6-0.3-1.1-0.8-1.5-1.4
	c-0.2-0.4-0.3-0.9-0.3-1.4C29.7,12.3,31,11,32.7,11z M9.7,14.5c-0.3,0.6-0.7,1.2-1.2,1.6c-0.7,0.5-1.5,0.8-2.4,0.8c-2.2,0-4-1.8-4-4
	s1.8-4,4-4s4,1.8,4,4C10,13.5,9.9,14,9.7,14.5z M10.4,29.9c-0.2,0.9-1,1.5-1.9,1.5c-1.1,0-2-0.9-2-2s0.9-2,2-2c0.5,0,1,0.2,1.4,0.5
	c0.4,0.4,0.6,0.9,0.6,1.5C10.4,29.5,10.4,29.7,10.4,29.9z M22.6,44c0,2.2-1.8,4-4,4s-4-1.8-4-4c0-2.1,1.6-3.8,3.6-4
	c0.1,0,0.3,0,0.4,0c0.6,0,1.1,0.1,1.6,0.3C21.6,41,22.6,42.4,22.6,44z M23.5,26.7c-0.2,0.2-0.5,0.5-0.8,0.6
	c-0.2,0.1-0.5,0.1-0.7,0.1c-0.5,0-0.9-0.2-1.3-0.5c0,0-0.1-0.1-0.1-0.1C20.2,26.5,20,26,20,25.4c0-0.1,0-0.2,0-0.3L19.9,25l0.2-0.1
	c0.1-0.6,0.6-1.1,1.2-1.4c0.2-0.1,0.5-0.1,0.7-0.1c0.2,0,0.3,0,0.5,0c0.7,0.2,1.2,0.6,1.4,1.3l0.1,0l-0.1,0.1C24,25,24,25.2,24,25.4
	C24,25.9,23.8,26.3,23.5,26.7z M44,33.4c-2.1,0-3.8-1.6-4-3.7c0-0.1,0-0.2,0-0.3c0-0.6,0.1-1.2,0.4-1.7c0.6-1.4,2-2.3,3.6-2.3
	c2.2,0,4,1.8,4,4S46.2,33.4,44,33.4z"/>
<path class="st0" d="M19.9,18.1l0.2,0.1c0-0.1,0-0.1,0-0.2C20.1,18,19.9,18.1,19.9,18.1z M23.9,17.8C23.9,17.8,23.9,17.9,23.9,17.8
	l0.1,0L23.9,17.8z"/>
<path class="st0" d="M20.1,18c0,0.1,0,0.1,0,0.2l-0.2-0.1C19.8,18.1,20.1,18,20.1,18z"/>
<path class="st0" d="M24,17.9L24,17.9c-0.1,0.1-0.1,0-0.1,0L24,17.9z"/>
<path class="st0" d="M24,17.9L24,17.9c-0.1,0.1-0.1,0-0.1,0L24,17.9z"/>
<path class="st0" d="M20.2,33.5l-2-0.3c0.1,0,0.3,0,0.4,0C19.2,33.1,19.7,33.2,20.2,33.5z"/>
<path class="st0" d="M20.1,18c0,0.1,0,0.1,0,0.2l-0.2-0.1C19.8,18.1,20.1,18,20.1,18z"/>
</svg>
