<?xml version="1.0" encoding="UTF-8"?>
<svg fill="#818181"  xmlns="http://www.w3.org/2000/svg" viewBox="0 0 50 50">
    <path d="m50,50v-2h-4v-30h-8v30h-3.33v-20h-8v20h-3.33v-26h-8v26h-3.33v-12H4v12H0v2h50Zm-44-2v-10h4v10h-4Zm11.33,0v-24h4v24h-4Zm11.33,0v-18h4v18h-4Zm11.33,0v-28h4v28h-4Z"/>
    <path d="m46,0c-2.21,0-4,1.79-4,4,0,.36.05.72.14,1.05l-7.28,4.16c-.72-.75-1.74-1.21-2.86-1.21-1.26,0-2.38.58-3.11,1.49l-6.95-3.14c.04-.22.06-.45.06-.69,0-2.21-1.79-4-4-4s-4,1.79-4,4c0,.56.12,1.1.34,1.58l-7.9,6.14c-.68-.53-1.52-.84-2.44-.84-2.21,0-4,1.79-4,4s1.79,4,4,4,4-1.79,4-4c0-.56-.12-1.1-.34-1.58l7.9-6.14c.68.53,1.52.84,2.44.84,1.26,0,2.38-.58,3.11-1.49l6.95,3.14c-.04.22-.06.45-.06.69,0,2.21,1.79,4,4,4s4-1.79,4-4c0-.36-.05-.72-.14-1.05l7.28-4.16c.72.75,1.74,1.21,2.86,1.21,2.21,0,4-1.79,4-4s-1.79-4-4-4ZM6,16.54c0,1.1-.9,2-2,2s-2-.9-2-2,.9-2,2-2c.26,0,.52.05.75.15.65.26,1.13.86,1.23,1.58.01.09.02.18.02.27Zm13.16-9.26c-.33.24-.72.38-1.16.38-.26,0-.52-.05-.75-.15-.65-.26-1.13-.86-1.23-1.58-.01-.09-.02-.18-.02-.27,0-1.1.9-2,2-2,1.03,0,1.89.79,1.99,1.8h0c.01.07.01.13.01.2,0,.66-.33,1.26-.83,1.62h-.01Zm12.84,6.72c-1.03,0-1.89-.79-1.99-1.8h0c-.01-.07-.01-.13-.01-.2,0-.66.33-1.26.83-1.62h.01c.33-.24.72-.38,1.16-.38.36,0,.71.1,1,.27.6.35,1,.99,1,1.73h0c-.01,1.11-.9,2-2,2Zm14-8c-.36,0-.71-.1-1-.27-.6-.35-1-.99-1-1.73h0c.01-1.11.9-2,2-2s2,.9,2,2-.9,2-2,2Z"/>
</svg>