<?xml version="1.0" encoding="UTF-8"?>
<svg fill="#818181" id="Layer_1" xmlns="http://www.w3.org/2000/svg" viewBox="0 0 50 50">
    <path d="m35,12h-4v-4h-6v4h-4v6h4v4h6v-4h4v-6Zm-6,8h-2v-4h-4v-2h4v-4h2v4h4v2h-4v4Z"/>
    <path d="m47.36,2.63c-3.28-3.28-8.49-3.49-12.02-.64-3.53-2.86-8.74-2.65-12.02.64-2.53,2.53-3.23,6.2-2.11,9.37h2.16c-1.23-2.6-.78-5.81,1.36-7.95,1.37-1.36,3.16-2.05,4.95-2.05s3.59.68,4.95,2.05l.71.71.71-.71c2.73-2.73,7.17-2.73,9.9,0,1.32,1.32,2.05,3.08,2.05,4.95s-.73,3.63-2.05,4.95l-10.61,10.61-4.34-4.34v1.79h-1.04l5.38,5.38,12.02-12.02c1.7-1.7,2.64-3.96,2.64-6.36s-.94-4.66-2.64-6.36Z"/>
    <rect x="8" y="31" width="2" height="1"/>
    <rect x="8" y="20.09" width="2" height="1.82"/>
    <rect x="8" y="16.45" width="2" height="1.82"/>
    <rect x="8" y="23.73" width="2" height="1.82"/>
    <rect x="8" y="27.36" width="2" height="1.82"/>
    <rect x="8" y="12.82" width="2" height="1.82"/>
    <rect x="8" y="9" width="2" height="2"/>
    <rect x="11.8" y="9" width="1.8" height="2"/>
    <polygon points="20.7 10 15.52 7.01 15.52 9 15.39 9 15.39 11 15.52 11 15.52 12.99 20.7 10"/>
    <rect x="30.31" y="40" width="2" height="2"/>
    <rect x="26.31" y="40" width="2" height="2"/>
    <rect x="34.35" y="28.04" width="2" height="2"/>
    <polygon points="34.31 42 36.35 42 36.35 40.04 34.31 40 34.31 42"/>
    <rect x="34.35" y="32.04" width="2" height="2"/>
    <rect x="34.35" y="36.04" width="2" height="2"/>
    <polygon points="23.18 38.01 18 41 23.18 43.99 23.18 42 24.31 42 24.31 40 23.18 40 23.18 38.01"/>
    <path d="m9,34c3.86,0,7,3.14,7,7s-3.14,7-7,7-7-3.14-7-7,3.14-7,7-7m0-2c-4.97,0-9,4.03-9,9s4.03,9,9,9,9-4.03,9-9-4.03-9-9-9h0Z"/>
    <path d="m9.82,46.5h-1.6v-1.27h-.38c-.55,0-.98-.15-1.27-.45s-.44-.74-.44-1.31v-.76h1.81v.68c0,.2.1.3.3.3h1.51c.2,0,.3-.1.3-.3v-1.13c0-.09-.02-.15-.07-.19s-.12-.08-.22-.11l-2.64-.71c-.11-.03-.22-.08-.33-.14-.11-.06-.21-.15-.29-.26-.09-.11-.16-.24-.22-.39-.06-.15-.08-.33-.08-.53v-1.4c0-.58.15-1.01.45-1.31s.74-.45,1.31-.45h.26v-1.27h1.6v1.27h.24c.55,0,.98.15,1.27.45.3.3.44.74.44,1.31v.83h-1.81v-.76c0-.2-.1-.3-.3-.3h-1.35c-.2,0-.3.1-.3.3v.91c0,.1.02.17.05.22s.11.09.21.12l2.51.67c.73.19,1.09.62,1.09,1.28v1.66c0,.58-.15,1.01-.45,1.31s-.74.45-1.31.45h-.29v1.27Z"/>
</svg>