<?xml version="1.0" encoding="UTF-8"?>
<svg id="Layer_1" xmlns="http://www.w3.org/2000/svg" viewBox="0 0 50 50">
    <defs>
        <style>.cls-1{fill:#818181;}</style>
    </defs>
    <path class="cls-1"
          d="m44,23.1c-2.6,0-4.81,1.65-5.64,3.96l-12.37-2.25c-.05-.67-.27-1.31-.62-1.85l4.68-5c.76.48,1.66.75,2.62.75,2.76,0,5-2.24,5-5s-2.24-5-5-5-5,2.24-5,5c0,1.07.34,2.07.93,2.88l-4.68,5c-.57-.31-1.22-.49-1.92-.49-.91,0-1.75.31-2.43.83l-8.29-6.48c.46-.85.72-1.82.72-2.85,0-3.31-2.69-6-6-6S0,9.29,0,12.6s2.69,6,6,6c1.56,0,2.98-.59,4.04-1.57l8.3,6.48c-.22.49-.34,1.02-.34,1.59,0,.05,0,.08.01.13h0s-6.14,1.82-6.14,1.82c-.69-1.17-1.97-1.95-3.43-1.95-2.2,0-4,1.79-4,4s1.8,4,4,4,4-1.79,4-4c0-.04,0-.09-.01-.13l6.14-1.82c.42.72,1.06,1.28,1.84,1.61l-1.48,9.24c-3.28.04-5.93,2.71-5.93,6s2.69,6,6,6,6-2.69,6-6c0-2.64-1.72-4.89-4.09-5.69l1.48-9.23c1.44-.14,2.66-1.04,3.23-2.31l12.38,2.25v.08c0,3.31,2.69,6,6,6s6-2.69,6-6-2.69-6-6-6Zm-11.33-12.39c1.65,0,3,1.35,3,3s-1.35,3-3,3c-.43,0-.84-.09-1.21-.25-.63-.28-1.14-.76-1.45-1.37-.22-.41-.34-.88-.34-1.38,0-1.65,1.34-3,3-3Zm-23.01,3.48c-.26.63-.69,1.18-1.23,1.58-.68.52-1.52.83-2.43.83-2.21,0-4-1.79-4-4s1.79-4,4-4,4,1.79,4,4c0,.57-.12,1.1-.34,1.59Zm.72,15.38c-.21.88-.99,1.53-1.94,1.53-1.1,0-2-.9-2-2s.9-2,2-2c.54,0,1.02.2,1.38.55.38.36.62.88.62,1.45,0,.16-.02.32-.06.47Zm12.62,14.43c0,2.21-1.79,4-4,4s-4-1.79-4-4c0-2.08,1.58-3.79,3.61-3.98.13,0,.26-.02.39-.02.57,0,1.1.12,1.59.34,1.42.61,2.41,2.02,2.41,3.66Zm-1.01-16.93c-1.1,0-2-.9-2-2s.9-2,2-2,2,.9,2,2-.9,2-2,2Zm22.01,6.03c-2.11,0-3.84-1.64-3.99-3.71-.01-.1-.01-.19-.01-.29,0-.59.13-1.16.38-1.67.62-1.38,2.01-2.33,3.62-2.33,2.21,0,4,1.79,4,4s-1.79,4-4,4Z"/>
</svg>