<?xml version="1.0" encoding="UTF-8"?>
<svg fill="#818181"  xmlns="http://www.w3.org/2000/svg" viewBox="0 0 50 50">
    <rect x="6" y="17" width="12" height="2"/>
    <rect x="6" y="20" width="10" height="2"/>
    <rect x="6" y="25" width="12" height="2"/>
    <rect x="6" y="28" width="8" height="2"/>
    <rect x="6" y="33" width="10" height="2"/>
    <rect x="6" y="36" width="6" height="2"/>
    <path d="m32,19.89s0,0,0,0V0H12.59l-2,2L2,10.59l-2,2v35.41h32v-8.73s0,0,0,0c1.78-.45,3.38-1.37,4.65-2.63,1.81-1.81,2.94-4.31,2.94-7.06,0-4.67-3.24-8.6-7.58-9.69ZM12,3.41v8.59H3.41L12,3.41Zm18,42.59H2V14h12V2h16v17.6c-.14,0-.28-.02-.42-.02-5.5,0-10,4.5-10,10s4.5,10,10,10c.14,0,.28-.02.42-.02v6.44Zm-.42-8.42c-4.41,0-8-3.59-8-8s3.59-8,8-8,8,3.59,8,8-3.59,8-8,8Z"/>
    <path d="m49.2,45.34l-6.55-6.55c-.78-.78-2.01-.97-3-.56l-2.3-2.3-.71.71-.71.71,2.29,2.29c-.43,1-.24,2.2.57,3.01l6.55,6.55c.53.53,1.23.8,1.93.8s1.4-.27,1.93-.8c1.06-1.06,1.06-2.79,0-3.86Zm-1.41,2.44c-.28.28-.75.28-1.03,0l-6.55-6.55c-.28-.28-.28-.75,0-1.03.28-.28.75-.28,1.03,0l6.55,6.55c.28.28.28.75,0,1.03Z"/>
    <path d="m36.29,27.88c-.09-.09-2.34-2.29-6.71-2.29s-6.61,2.2-6.71,2.29l1.41,1.42s.55-.5,1.51-.94c-.13.39-.21.8-.21,1.23,0,2.21,1.79,4,4,4s4-1.79,4-4c0-.43-.09-.84-.21-1.23.97.44,1.47.9,1.51.94l1.41-1.41Zm-4.71,1.71c0,1.1-.9,2-2,2s-2-.9-2-2,.9-2,2-2,2,.9,2,2Z"/>
</svg>