<svg xmlns="http://www.w3.org/2000/svg" xmlns:xlink="http://www.w3.org/1999/xlink" version="1.1" id="Layer_1" x="0px"
     y="0px" viewBox="0 0 950 402.7" style="enable-background:new 0 0 950 402.7;" xml:space="preserve">
<style type="text/css">
	.st0{fill:#FF931E;}
	.st1{fill:none;}
	.st2{fill:#808080;}
</style>
    <path class="st0"
          d="M896.1,311.4c-8.1,0-15.4,2.9-21.1,7.8l-63-44.1c17.8-27.7,28.1-60.7,28.1-96.1C840,80.4,760.1,0.5,661.5,0.5  S483,80.4,483,179s79.9,178.5,178.5,178.5c57.4,0,108.4-27.1,141.1-69.1l63.1,44.2c-1.3,3.5-2.1,7.4-2.1,11.4  c0,17.9,14.5,32.5,32.5,32.5c17.9,0,32.5-14.5,32.5-32.5S914,311.4,896.1,311.4z"/>
    <path class="st1"
          d="M284.1,219.6c1.3-1.6,2.3-3.6,3-5.9c0.7-2.3,1-5.5,1-9.6c0-3.8-0.3-6.9-1-9.5c-0.7-2.5-1.6-4.6-2.9-6.1  c-1.2-1.6-2.7-2.7-4.4-3.3c-1.7-0.6-3.6-1-5.5-1c-2,0-3.7,0.3-5.3,0.8c-1.5,0.5-3,1.6-4.4,3.2c-1.3,1.5-2.3,3.5-3,6.1  c-0.7,2.6-1.1,5.8-1.1,9.8c0,3.5,0.3,6.5,1,9.1c0.6,2.6,1.6,4.6,2.9,6.2c1.2,1.5,2.7,2.6,4.4,3.3c1.7,0.7,3.6,1,5.8,1  c1.9,0,3.6-0.3,5.3-0.9C281.4,222.2,282.9,221.1,284.1,219.6z"/>
    <polygon class="st1" points="399.5,173 389,203.5 409.9,203.5 "/>
    <path class="st1"
          d="M127.5,182.8c-4,0-7.2,0.9-9.8,2.9c-2.5,2.1-4,5.7-4.3,9.7h26.7c-0.1-4-1.2-7.4-3.2-9.6  C134.9,183.7,131.7,182.8,127.5,182.8z"/>
    <path class="st2"
          d="M376.6,313.3c-10.3-14.7-27.3-24.3-46.6-24.3c-4.3,0-8.6,0.5-12.6,1.4l-22.2-57.7c-4.3,2.7-9.5,4.3-15.5,5  l22.5,58.5c-17.3,9.7-29.1,28.3-29.1,49.6c0,31.4,25.4,56.8,56.8,56.8c31.4,0,56.8-25.4,56.8-56.8c0-6.3-1-12.4-3-18.1l121.8-61.4  c-2.7-4.7-5.1-9.5-7.3-14.5L376.6,313.3z"/>
    <polygon class="st0"
             points="55,182.5 23,182.5 23,151.5 0,151.5 0,235.5 23,235.5 23,198.5 55,198.5 55,235.5 76,235.5 76,151.5   55,151.5 "/>
    <path class="st0"
          d="M129.1,170c-11.3,0-20.2,3.1-26.7,9.3c-6.5,6.2-9.7,14.6-9.7,25.1c0,10.7,3.4,18.9,10.3,24.7  c6.9,5.8,16.7,8.7,29.6,8.7c5,0,9.4-0.4,13.5-1.3c4.1-0.8,8-2.2,13-4.1v-16h-2c-2.4,1-5.6,3.2-9.6,4.8c-4.1,1.6-8.3,2.2-12.6,2.2  c-6.9,0-12-1.1-15.6-3.7c-3.5-2.7-5.4-7.3-5.7-11.3H161v-7.8c0-9.9-2.9-17.5-8.1-22.7C147.6,172.6,139.6,170,129.1,170z   M113.4,195.5c0.3-4,1.7-7.7,4.3-9.7c2.5-2.1,5.8-3,9.8-3c4.3,0,7.4,1,9.4,3.1c2,2.2,3.1,5.6,3.2,9.6H113.4z"/>
    <path class="st0"
          d="M207.8,170.2c-4.9,0-9.6,0.6-14.1,1.9c-4.5,1.3-8.5,3.2-12,5.9c-3.6,2.9-6.4,6.5-8.4,10.8s-3,9.5-3,15.5  c0,5.7,0.9,10.6,2.8,14.8c1.9,4.2,4.5,7.7,7.9,10.5c3.4,2.8,7.5,4.8,12.1,6.2s9.7,2,15.3,2c4.3,0,8.5-0.4,12.1-1.3  c3.5-0.9,6.5-2.1,10.5-3.6v-18.4h-3.7c-0.8,2-1.7,2-2.7,2.9c-1,0.8-2.1,1.8-3.4,2.6c-1.4,0.8-3.1,1.6-5.2,2.2  c-2.1,0.6-4.4,0.9-7,0.9c-5.5,0-9.8-1.6-12.9-4.8c-3-3.2-4.5-7.9-4.5-14c0-6,1.5-10.7,4.4-14.2c2.9-3.5,7.2-5.2,12.6-5.2  c2.5,0,4.6,0.3,6.5,0.8c1.9,0.6,3.6,1.2,5.1,2.1c1.6,0.9,3,2.1,4.1,3c1.1,0.9,2.1,0.7,2.9,2.7h3.7v-18.1c-4-1.5-7-2.8-10.7-3.7  C216.6,170.7,212.2,170.2,207.8,170.2z"/>
    <path class="st0"
          d="M300.1,229c6.1-6.1,9.2-14.4,9.2-24.9c0-10.5-3.1-18.9-9.2-24.9c-6.1-6.1-14.8-9.1-25.9-9.1  c-1.1,0-2.1,0.1-3.1,0.1l-18.9-49c17.3-9.7,29.1-28.3,29.1-49.6c0-31.4-25.4-56.8-56.8-56.8c-31.4,0-56.8,25.4-56.8,56.8  s25.4,56.8,56.8,56.8c4.3,0,8.6-0.5,12.6-1.4l18.2,47.2c-2.6,1.3-4.9,3-6.9,4.9c-6.2,6.1-9.3,14.4-9.3,25c0,10.5,3.1,18.8,9.2,24.9  c6.1,6.1,14.8,9.1,25.9,9.1c1.9,0,3.8-0.1,5.5-0.3c6-0.6,11.2-2.3,15.5-5C297,231.7,298.7,230.4,300.1,229z M268.6,222.7  c-1.7-0.7-3.1-1.8-4.4-3.3c-1.3-1.6-2.2-3.6-2.9-6.2c-0.6-2.6-1-5.6-1-9.1c0-3.9,0.4-7.2,1.1-9.8c0.7-2.6,1.7-4.6,3-6.1  c1.4-1.6,2.9-2.7,4.4-3.2c1.5-0.5,3.3-0.8,5.3-0.8c2,0,3.8,0.3,5.5,1c1.7,0.6,3.2,1.8,4.4,3.3c1.2,1.5,2.2,3.6,2.9,6.1  c0.7,2.5,1,5.7,1,9.5c0,4.1-0.3,7.3-1,9.6c-0.7,2.3-1.7,4.3-3,5.9c-1.2,1.5-2.6,2.5-4.3,3.2c-1.7,0.6-3.5,0.9-5.3,0.9  C272.2,223.7,270.3,223.4,268.6,222.7z"/>
    <path class="st2"
          d="M383.7,219.5h31.5l5.9,16h22.6l-31.4-84h-25.2l-31.4,84h22.1L383.7,219.5z M399.5,173l10.5,30.5H389L399.5,173z  "/>
    <path class="st2"
          d="M493.5,187.8c1.5,0.6,2.6,1.7,3.3,3.1c0.6,1.2,1.3,3.1,1.6,5.7c0.3,2.6,0.6,5.1,0.6,7.7v31.2h21v-41.1  c0-8-2.3-14.1-6.2-18.1c-3.9-4-9.5-6.1-16.4-6.1c-4.1,0-7.9,0.8-11.3,2.3c-1,0.5-1.9,1-2.9,1.6c-2.4,1.3-6.1,3-7.1,4.9v-6.6h-21v63  h21v-44.8c1-1.3,4-2.3,6-2.9c0.4-0.1,0.7-0.2,1.1-0.4c1.5-0.4,2.9-0.6,4.3-0.6C490.1,186.8,492,187.1,493.5,187.8z"/>
    <path class="st2"
          d="M598,192.4c0-7.7-2.9-13.3-8.1-16.9c-5.2-3.6-13.8-5.4-25.5-5.4c-4.9,0-9.8,0.4-14.7,1.2  c-4.9,0.8-8.6,1.5-10.6,2v15.1h1.8c1.7,0,4.4-1.4,8.3-2.6c3.8-1.2,7.5-1.7,10.8-1.7c5.6,0,9.4,0.7,12.3,2.1c2.9,1.4,3.8,3.8,3.8,7.4  v0.3c-4,0.3-11.4,0.9-17,1.6c-5.6,0.7-10.1,1.9-13.9,3.7c-3.8,1.7-6.7,4.1-8.8,7c-2.1,3-3.1,6.8-3.1,11.5c0,5.9,2.1,10.7,6.2,14.4  c4.1,3.8,9.2,5.7,15.3,5.7c2.6,0,5-0.2,7.1-0.7s4.3-1.1,6.3-2c1.4-0.7,2.5-1.6,4.2-2.8c1.6-1.2,3.6-2.2,3.6-3v6.2h22V192.4z   M570.9,222.6c-2.1,0.8-4,1.3-6,1.3c-2.6,0-4.4-0.2-5.6-0.5c-1.2-0.4-2.2-0.9-3.1-1.7c-0.9-0.8-1.5-1.6-1.7-2.4  c-0.2-0.8-0.3-1.9-0.3-3.2c0-2,0.5-3.6,1.6-4.9c1.1-1.2,2.7-2.2,4.7-2.8c1.7-0.5,3.7-1,6.9-1.4c3.2-0.4,7.6-0.7,8.6-0.9v13.3  C575,220.7,573,221.8,570.9,222.6z"/>
    <rect x="615" y="147.5" class="st2" width="22" height="88"/>
    <polygon class="st2"
             points="720.8,172.5 699.7,172.5 685.1,213.9 669.8,172.5 648.2,172.5 673.1,236.3 662.9,260.5 685.2,260.5 "/>
    <path class="st2"
          d="M734,215.9c0,7.8,1.7,13.4,5.6,16.6c3.9,3.2,9.7,4.9,17.7,4.9c3.6,0,6.4-0.2,8.9-0.5c2.5-0.3,4.8-0.8,6.8-1.3  v-14h-1.5c-0.7,1-1.9,0.8-3.6,1.3s-3.1,0.7-4.2,0.7c-2.6,0-4.5-0.4-5.9-1.2c-1.3-0.8-2.3-1.8-2.8-3.2c-0.6-1.3-1.4-2.8-1.4-4.5  c0-1.7-0.6-3.6-0.6-5.9v-23.2h20v-13h-20v-18h-19v18h-10v13h10V215.9z"/>
    <rect x="786" y="172.5" class="st2" width="19" height="63"/>
    <rect x="784" y="147.5" class="st2" width="23" height="15"/>
    <path class="st2"
          d="M823.8,188.8c-2,4.3-3,9.5-3,15.5c0,5.7,0.9,10.6,2.8,14.8c1.9,4.2,4.5,7.7,7.9,10.5c0.3,0.2,0.6,0.4,0.9,0.7  c3.2,2.4,6.9,4.3,11.2,5.5c4.6,1.3,9.7,2,15.3,2c4.3,0,7.8-0.4,11.3-1.3c3.5-0.9,6.8-2.1,9.8-3.6v-18.4h-2.2c-0.8,2-1.7,2-2.7,2.9  c-1,0.8-2.1,1.8-3.4,2.6c-1.4,0.8-3.1,1.6-5.2,2.2c-2.1,0.6-4.4,0.9-7,0.9c-5.5,0-9.8-1.6-12.9-4.8c-3-3.2-4.5-7.9-4.5-14  c0-6,1.5-10.7,4.4-14.2c2.9-3.5,7.2-5.2,12.6-5.2c2.5,0,4.6,0.3,6.5,0.8c1.9,0.6,3.6,1.2,5.1,2.1c1.6,0.9,3,2.1,4.1,3  s2.1,0.7,2.9,2.7h2.2v-18.1c-3-1.5-6.3-2.8-10-3.7c-3.7-0.9-7.6-1.4-11.9-1.4c-4.9,0-9.5,0.6-14,1.9c-1.5,0.4-2.8,0.9-4.2,1.5  c-2.8,1.2-5.4,2.6-7.7,4.4C828.6,180.9,825.8,184.5,823.8,188.8z"/>
    <path class="st2"
          d="M946.1,204.4c-2.6-3-6.6-5.2-12-6.7c-2.4-0.6-4.9-1.1-7.3-1.5c-2.4-0.4-4.7-0.8-6.8-1.2  c-3.8-0.8-6.2-1.6-7.3-2.4s-1.5-2-1.5-3.5c0-1.7,1.1-3,3.4-3.9s5.1-1.4,8.4-1.4c4,0,7.9,0.9,11.8,2.2c3.9,1.3,7.4,2.4,10.4,5.4h1.7  v-16.7c-2-1.1-5.9-2.1-10.3-3.1c-4.4-1-9-1.5-13.8-1.5c-10.1,0-18.1,2-23.9,6.1c-5.8,4.1-8.8,9.2-8.8,15.4c0,4.8,1.4,8.8,4.2,12  c2.8,3.2,7.1,5.6,13,7.1c2.1,0.6,4.5,1.1,7.1,1.5c2.6,0.4,4.7,0.8,6.2,1.1c3.2,0.6,5.4,1.3,6.5,2c1.1,0.7,1.7,1.8,1.7,3.4  c0,1.8-1,3.1-2.9,4c-1.9,0.9-4.9,1.3-9,1.3c-3.1,0-6-0.3-8.7-0.9c-2.7-0.6-5.1-1.4-7.3-2.3c-2.5-1-4.4-1.6-5.7-2.4  c-1.4-0.9-2.5-2-3.6-2H890v16.2c3,1.3,6.5,2.5,11.2,3.5c4.6,1.1,9.8,1.6,15.5,1.6c10.3,0,18.4-2,24.4-6.1c5.9-4.1,8.9-9.4,8.9-16  C950,211.2,948.7,207.4,946.1,204.4z"/>
</svg>