<?xml version="1.0" encoding="utf-8"?>
<svg version="1.1" xmlns="http://www.w3.org/2000/svg" xmlns:xlink="http://www.w3.org/1999/xlink" x="0px" y="0px"
	 viewBox="0 0 50 39.4" style="enable-background:new 0 0 50 39.4;" xml:space="preserve">
<style type="text/css">
	.st0{fill:#FFFFFF48;}
</style>
<g>
	<path class="st0" d="M18.8,0c0.7,0.3,2.3,4.3,2.1,5c-0.3,0.9-2.7,1-5.5,4.6c-2.4,3.1-2.3,6.1-2.3,6.1s5.6,1.8,7.9,6.3
		c1.9,3.7,2.1,13.3-5.6,16.4c-8.1,3.3-13.2-2.9-14.8-9.8c-1.7-7,1.1-15.2,6.5-21.7C11,2.1,18.2-0.2,18.8,0z"/>
	<path class="st0" d="M46.8,0c0.7,0.3,2.3,4.3,2.1,5c-0.3,0.9-2.7,1-5.5,4.6c-2.4,3.1-2.3,6.1-2.3,6.1s5.6,1.8,7.9,6.3
		c1.9,3.7,2.1,13.3-5.6,16.4c-8.1,3.3-13.2-2.9-14.8-9.8c-1.7-7,1.1-15.2,6.5-21.7C39,2.1,46.2-0.2,46.8,0z"/>
</g>
</svg>
